
	<svg xmlns="http://www.w3.org/2000/svg" xmlns:xlink="http://www.w3.org/1999/xlink" version="1.1" width="512" height="512" viewBox="0 0 100 100">


		<defs>
			<g id="background">
<path fill="#background-gradient" stroke="none" d=" M 96.1 30.55 Q 92.3 21.55 85.35 14.6 78.45 7.7 69.5 3.9 60.2 0 50.05 0 39.85 0 30.55 3.9 21.55 7.7 14.65 14.6 7.75 21.55 3.95 30.55 0 39.8 0 50 0 60.15 3.95 69.45 7.75 78.4 14.65 85.35 21.55 92.25 30.55 96.05 39.85 100 50.05 100 60.2 100 69.5 96.05 78.45 92.25 85.35 85.35 92.3 78.4 96.1 69.45 100 60.15 100 50 100 39.8 96.1 30.55 Z"/>
</g><mask id="mask">
<path fill="#FFFFFF" stroke="none" d=" M 96.1 30.55 Q 92.3 21.55 85.35 14.6 78.45 7.7 69.5 3.9 60.2 0 50.05 0 39.85 0 30.55 3.9 21.55 7.7 14.65 14.6 7.75 21.55 3.95 30.55 0 39.8 0 50 0 60.15 3.95 69.45 7.75 78.4 14.65 85.35 21.55 92.25 30.55 96.05 39.85 100 50.05 100 60.2 100 69.5 96.05 78.45 92.25 85.35 85.35 92.3 78.4 96.1 69.45 100 60.15 100 50 100 39.8 96.1 30.55 Z"/>
</mask><g id="gloss-top">
<path fill="#FFFFFF" fill-opacity="0.30196078431372547" stroke="none" d=" M 96.05 30.55 Q 92.25 21.55 85.3 14.65 78.4 7.75 69.45 3.9 60.15 0 50 0 39.8 0 30.55 3.9 21.55 7.75 14.65 14.65 7.75 21.55 3.9 30.55 0 39.8 0 50 L 99.95 50 Q 99.95 39.8 96.05 30.55 Z"/>
</g><g id="gloss-right">
<path fill="#FFFFFF" fill-opacity="0.30196078431372547" stroke="none" d=" M 96.1 30.55 Q 92.3 21.55 85.35 14.65 78.5 7.75 69.5 3.9 60.2 0 50.05 0 L 50.05 100 Q 60.2 100 69.5 96.05 78.5 92.25 85.35 85.35 92.3 78.45 96.1 69.45 100 60.15 100 50 100 39.8 96.1 30.55 Z"/>
</g><g id="gloss-left">
<path fill="#FFFFFF" fill-opacity="0.30196078431372547" stroke="none" d=" M 30.55 3.9 Q 21.55 7.75 14.65 14.65 7.75 21.55 3.9 30.55 0 39.8 0 50 0 60.15 3.9 69.45 7.75 78.45 14.65 85.35 21.55 92.25 30.55 96.05 39.8 100 50 100 L 50 0 Q 39.8 0 30.55 3.9 Z"/>
</g>
			
	<linearGradient id="background-gradient" x1="0" y1="0" y2="1" x2="0" >
		<stop stop-color="#ffffff" offset="0%"/>
		<stop stop-color="#a6a6a6" offset="100%"/>
	</linearGradient>

			
			
			<g transform="scale(0.26809653668004557) translate(-60.25 -70.00000762939453)" id="picture">
    <path d="M325 73.7c-6.1 2.9-9.2 5.4-16.7 13.1-7.8 8.1-9.5 10.4-10.8 15-.9 3-2.3 6.5-3.2 7.8-2.5 3.9-5.5 16.4-6 25.4-.4 7.1-.1 9.7 1.9 16 2.8 8.7 5.6 12.9 16.5 24.4 8.9 9.4 11.4 11 19.5 12.5 6.5 1.2 11.3 3.3 12.1 5.4.9 2.4-1 8.8-4.9 16.2-2 3.8-4 7.5-4.4 8-.5.6-2.3 4.9-4 9.5-1.7 4.7-3.9 9.6-4.9 11-.9 1.4-3.2 7.2-5 13-1.9 5.8-4.1 11.6-5.1 13-.9 1.4-2.5 5-3.5 8s-3.5 9.3-5.6 14c-2 4.7-4.2 10.4-4.8 12.7-.7 2.3-1.6 4.5-2.1 4.8-.6.4-2 2.5-3.1 4.7-2.5 5-1.9 8.5 1.7 9.4 5.2 1.3 9.2-2.6 10.9-10.6.7-3.7 9.8-25.2 14-33.3 1.4-2.6 2.5-5.6 2.5-6.7 0-1.1 1.8-6.4 4.1-11.7 2.2-5.4 4.6-12 5.4-14.7 1.2-4.4 3.5-7.6 5.6-7.6.4 0 1.4.7 2.3 1.5 1.3 1.3 1.4 6.6 1 39.4l-.4 37.8-5.6 10.9c-3 6-6.4 12.2-7.4 13.9-1 1.6-2.1 5-2.5 7.5-.4 2.5-2.7 8.3-5 13-2.3 4.7-4.5 10.6-4.9 13.2-.4 2.6-1.5 5.7-2.5 7-1 1.3-2.1 4.2-2.5 6.6-.3 2.3-1.3 6.2-2.2 8.5-1.3 3.8-5.3 16-9.7 30.2-.8 2.7-2.6 7.6-3.8 10.8l-2.2 5.8 2 2.1c1.4 1.3 2.7 1.8 4.1 1.4 3-1 7.1-8.6 8.3-15.3.6-3.2 2-7.4 3.1-9.2 3.1-5.4 6.8-16 6.8-19.6 0-1.7 1.1-5.3 2.5-7.9 1.4-2.6 2.8-6.6 3.1-8.9.7-5.3 5.6-19.9 8.3-25.2 1.2-2.1 2.1-4.7 2.1-5.8 0-3.4 8-16.7 10.5-17.3 5.2-1.3 8.5 2.2 8.5 9.2 0 2 1.6 6.6 3.9 11.2 2.2 4.3 4.4 9.8 5.1 12.2.7 2.5 2.1 6.2 3.1 8.2 1.1 2.1 2.6 6.8 3.3 10.5.8 3.8 2.2 8.5 3 10.5.9 2.1 1.6 6.1 1.6 9 0 3.6.7 6.7 2.4 9.8 1.3 2.5 2.6 6.7 3 9.5.7 5.6 3.3 13.3 5.1 15.3 1.5 1.7 4.9.2 6.5-2.8 1.2-2.3-.1-12.2-2.6-19.1-.8-2.4-1.9-8.1-2.5-12.5-.5-4.5-1.8-10.1-2.9-12.5-1.1-2.4-2-5.1-2-6 0-2.2-5.7-19.5-7.7-23.2-.8-1.6-3.2-8.2-5.3-14.6-2.1-6.4-4.5-13-5.4-14.6-.8-1.7-2.2-5.9-3-9.5-.8-3.6-2.2-9-3.2-12-1.3-4.1-1.9-11.3-2.6-29-.4-12.9-1.1-27.5-1.4-32.4-.7-10.8-.1-13.4 3-14.2 4.2-1 6.5.4 7.7 4.8.6 2.3 1.9 5.3 2.8 6.7 4.8 7.1 7 10.9 8 14.3.7 2 1.8 4.2 2.6 4.8.8.6 1.9 2.8 2.6 4.8 3.5 10.8 13.6 24.3 19.2 25.7 2.2.6 2.9.3 3.8-1.8 1.9-4.2.3-7.8-7.4-15.9-1-1-3.4-5.6-5.3-10.1s-3.9-8.9-4.4-9.7c-.6-.8-1.9-3.2-3.1-5.4-1.1-2.1-4-6.8-6.3-10.5-2.4-3.6-4.8-8.2-5.4-10.1-.7-2-3-5.7-5.1-8.3-2.2-2.6-4.3-6.2-4.6-8-.4-1.7-1.6-4.8-2.5-6.7-5.3-10.2-8-16.2-8-17.4 0-3.6 4.1-6.5 11.5-8.1 11.2-2.5 21.7-9.7 29.1-20 7-9.8 8.4-13.6 9.5-25.9.9-11.2.3-13.3-9.2-33.1-2.6-5.5-5.1-12-5.5-14.5-.8-5.4-1.9-6.7-10.9-13.5-11-8.2-11.8-8.5-25.2-8.5-11.5.1-12 .2-19.3 3.7zm32 6.3c5 2.6 9.7 7.6 11.1 12 .6 1.9 2 4.4 3 5.5 1 1.1 3.4 5.4 5.4 9.5 2 4.1 4.8 9.7 6.3 12.4 2.2 4.3 2.6 6.5 3 16.1.7 18.5-1.7 23.7-16.7 35-8.4 6.4-24.6 12-30.1 10.5-1.9-.5-5.1-1-7-1-6-.1-10.4-2.4-16.1-8.5-3-3.2-7.3-7.8-9.7-10.2-6.7-7-7.3-8.9-7.5-22.6-.2-11.3 0-12.7 2.5-18.2 1.4-3.3 2.9-7.1 3.2-8.5.3-1.4 3.2-6.6 6.4-11.5 4.9-7.6 6.9-9.7 12.6-13.4 7.5-4.8 13-6.8 22.1-8 3.3-.5 6.4-.9 6.8-1 .4 0 2.5.8 4.7 1.9zm-206 30.1c-1.4.6-4.5.8-6.8.5-2.4-.3-6.2-.2-8.5.4-2.3.5-5.8 1.1-7.7 1.5-6.9 1-20.8 16.3-27.8 30.5-4.8 9.8-5.7 13.7-5.6 23 .4 16.5 1.8 24.9 5.7 33 4.2 8.7 5.8 10.8 11.1 14.9 3 2.4 4.9 3.1 8.5 3.1 3.7 0 5.6.7 9.6 3.5 2.7 2 5.3 4.2 5.8 5 .7 1.4-4.4 15.7-8.6 24-1.9 3.6-4.3 11-8.3 25.1-1.4 5.2-4.4 12.5-9 22-3.3 6.7-3.9 11.4-2.1 13.9 1.5 1.9 1.6 1.9 5.2.2 3.8-1.8 6.2-5.9 7.3-12.6.3-2 1.8-6.1 3.4-9.1 1.5-3 3.9-9.8 5.2-15 1.7-6.9 3.4-11.1 6.2-15.2 2.1-3.2 4.2-5.8 4.6-5.8 2.2 0 2.9 4.9 2.4 16.3-.4 6.7-1 22.3-1.4 34.7-.7 21.6-.9 22.8-3.6 28.9-3.5 8.1-7.2 18.6-8.1 23.1-.4 1.9-1.5 5.1-2.5 7-.9 1.9-2.2 6.2-2.9 9.6-.6 3.3-2.7 10.5-4.7 16-2 5.4-4.4 12.9-5.4 16.6-1 3.7-2.7 7.9-3.9 9.4-1.1 1.4-2.3 4.2-2.6 6.3-.4 2-1.5 5.4-2.6 7.7-2.3 5-2.4 6.3-.3 9.2 2.1 3 5 2.8 7.1-.5 2.6-3.8 7.2-16.6 9.2-25.3.9-4.1 2.4-8.6 3.3-10 .8-1.4 2.7-6.6 4.2-11.5 1.5-5 3.8-11.3 5.2-14.1 1.3-2.8 2.4-6.6 2.4-8.5 0-2.8 3.9-16.3 7.1-24.6 1.1-3 5.3-5.6 7.8-4.8 2.8.9 8.6 11.7 12.2 22.8 2.1 6.6 4.2 10.8 7 14.1 2.1 2.6 4.3 6.7 4.9 8.9.6 2.3 1.9 5.8 2.9 7.7 2.6 5 11.2 32.5 12.5 40.2.4 2.3 1.7 4.5 3.3 5.8l2.6 2.1 2.9-2.8c3.1-3 3.6-6.2 1.2-9.8-.8-1.3-2.2-6-2.9-10.4-.8-4.5-2.2-9.5-3-11.1-.9-1.6-2.8-6.5-4.4-10.7-3.2-8.6-11.2-24.6-15.4-30.7-1.5-2.1-2.7-4.5-2.7-5.2 0-.8-1.1-3.7-2.4-6.6-1.3-2.9-2.8-6.7-3.4-8.3-3-8.7-7.1-16.8-10.4-20.6-3.8-4.3-3.8-4.4-4-13.9-.5-22.2.7-42.9 2.6-44.8 2.6-2.6 7.7 1.9 11.5 10.2 1.8 3.9 4.6 9.8 6.2 13.2 1.6 3.3 2.9 6.5 2.9 7.1 0 1.7 8.9 18 10.5 19.3 2.2 1.8 6.2-1.2 7.4-5.6 1.2-4.5.8-5.7-4.6-11.3-3-3.1-4.9-6.2-5.9-9.9-1.9-6.4-6.5-15.9-10.7-22.2-3.2-4.9-7.7-15-10.8-24.3-1-3.2-2.3-6.6-2.9-7.7-1.3-2.5-3.2-16.9-2.5-19.2.7-2.1 3.5-3 9.5-3.3 6-.2 11.8-4.4 16.1-11.5 1.8-3 3.8-6.2 4.4-7 3.2-4.1 6.3-14.9 6.9-24.4.4-5.4 1.2-11 1.7-12.4 1.7-4.5-2.2-14.6-11.2-28.9-3.2-5.2-10.3-11.1-18-15.2-6.2-3.3-8.8-3.6-12.9-2zm27.3 31.4c.9.8 2.3 3.8 3.3 6.7 2.6 7.6 2.3 18.2-.9 29.6-2.2 8-3.3 10.1-7.7 15.2-6.5 7.5-9 8.3-24.6 7.8-13.1-.4-17.8-1.9-24.3-7.8-3.1-2.9-3.3-3.4-2.6-7.3.4-2.3.7-6.2.5-8.7-.7-13.5-.6-14.2 2.1-16.2 1.4-1.1 4.1-2.1 6-2.3 1.9-.1 4.7-.8 6.3-1.4 1.5-.6 5.6-1.5 9-2 4.4-.6 8-2.1 12.8-5 3.7-2.3 7.2-4.1 7.6-4.1.5 0 2.6-1.4 4.7-3 4.2-3.4 5.7-3.7 7.8-1.5z"/>
</g>
			
		</defs>

		

			<use xlink:href="#background" fill="url(#background-gradient)" />

		

			<g mask="url(#mask)">
				<g transform="
				        translate(
                                50 50
)
                            translate(0 0)  scale(0.6000000000000001)  
                            translate(
                                -50 -50
)">
						<use xlink:href="#picture"   />
				</g>
			</g>

		

			<use xlink:href="#gloss-right" opacity="1" />


	</svg>
